<?xml version="1.0" standalone="no"?>
<!DOCTYPE svg PUBLIC "-//W3C//DTD SVG 20010904//EN"
 "http://www.w3.org/TR/2001/REC-SVG-20010904/DTD/svg10.dtd">
<svg version="1.0" xmlns="http://www.w3.org/2000/svg"
 width="512.000000pt" height="512.000000pt" viewBox="0 0 512.000000 512.000000"
 preserveAspectRatio="xMidYMid meet">

<g transform="translate(0.000000,512.000000) scale(0.100000,-0.100000)"
fill="#000000" stroke="none">
<path d="M2242 5105 c-133 -37 -242 -134 -294 -262 -23 -58 -23 -61 -28 -614
l-5 -556 -415 239 c-228 132 -446 255 -485 274 -94 45 -187 58 -278 39 -122
-25 -201 -77 -266 -173 -45 -67 -207 -345 -244 -418 -59 -116 -59 -257 -2
-378 57 -120 50 -115 657 -466 214 -123 388 -227 388 -230 0 -3 -174 -107
-387 -230 -608 -351 -601 -346 -658 -466 -57 -121 -57 -262 2 -378 37 -73 199
-351 244 -418 119 -176 343 -231 544 -134 39 19 257 142 485 274 l415 239 5
-556 c5 -550 5 -557 28 -613 44 -110 140 -206 249 -250 56 -22 67 -23 363 -23
296 0 307 1 363 23 109 44 205 140 249 250 23 56 23 63 28 613 l5 556 415
-239 c228 -132 447 -255 485 -274 94 -45 187 -58 278 -39 122 25 201 77 266
173 45 67 207 345 244 418 59 116 59 257 2 378 -57 120 -50 115 -657 466 -214
123 -388 227 -388 230 0 3 174 107 388 230 607 351 600 346 657 466 57 121 57
262 -2 378 -79 156 -252 435 -298 481 -127 126 -318 154 -490 71 -38 -19 -257
-142 -485 -274 l-415 -239 -5 556 c-5 550 -5 557 -28 613 -45 110 -140 206
-249 250 -55 21 -72 23 -343 25 -224 2 -296 -1 -338 -12z"/>
</g>
</svg>
