<svg version="1.1" id="Layer_1" xmlns="http://www.w3.org/2000/svg" xmlns:xlink="http://www.w3.org/1999/xlink" x="0px" y="0px"
	 width="100%" viewBox="0 0 512 512" enable-background="new 0 0 512 512" xml:space="preserve">
<path fill="#000000" opacity="1.000000" stroke="none" 
	d="
M322.000000,513.000000 
	C214.692734,513.000000 107.885460,513.000000 1.039095,513.000000 
	C1.039095,342.401031 1.039095,171.802063 1.039095,1.101549 
	C171.557281,1.101549 342.114624,1.101549 512.835999,1.101549 
	C512.835999,171.666534 512.835999,342.333252 512.835999,513.000000 
	C449.468719,513.000000 385.984344,513.000000 322.000000,513.000000 
M353.324982,199.000000 
	C334.045929,199.000000 314.766876,199.000000 295.030304,199.000000 
	C295.030304,182.888992 294.409882,167.241501 295.237335,151.670959 
	C295.840088,140.328278 300.588562,135.183853 309.647675,133.272995 
	C313.965515,132.362228 318.478302,132.117615 322.909698,132.054031 
	C334.237244,131.891525 345.583344,131.649673 356.893341,132.124039 
	C364.353516,132.436920 368.224548,127.386993 368.121063,121.138260 
	C367.792786,101.316429 368.004425,81.485733 367.997467,61.658470 
	C367.994965,54.517876 365.416351,52.006969 358.072357,52.003021 
	C340.910950,51.993793 323.746124,51.798431 306.589661,52.090157 
	C298.718964,52.223988 290.755035,52.716663 283.023956,54.106533 
	C261.220428,58.026287 242.718536,67.933075 228.819168,85.653404 
	C215.203812,103.011696 208.691696,122.918381 208.088104,144.726669 
	C207.641144,160.876022 208.000076,177.047684 208.000000,193.209396 
	C207.999985,194.990494 207.999985,196.771591 207.999985,199.000076 
	C205.844635,199.000076 204.220047,199.000061 202.595459,199.000076 
	C187.433426,199.000137 172.271408,198.995361 157.109375,199.002228 
	C149.193039,199.005814 146.006134,202.118378 146.002853,209.872025 
	C145.993973,230.865601 145.996140,251.859177 146.001526,272.852753 
	C146.003601,280.907043 149.093536,283.975281 157.332489,283.991364 
	C172.327835,284.020630 187.323303,283.999634 202.318710,283.999603 
	C204.089264,283.999603 205.859818,283.999603 208.000000,283.999603 
	C208.000000,286.577606 208.000000,288.545471 208.000000,290.513367 
	C208.000000,344.496857 207.996307,398.480316 208.004669,452.463806 
	C208.005722,459.331665 210.682938,461.991577 217.580307,461.995453 
	C239.240341,462.007660 260.904236,461.762878 282.558563,462.114410 
	C291.472809,462.259094 295.062469,458.959412 295.045502,449.421326 
	C294.951019,396.271118 295.000061,343.120605 295.000000,289.970215 
	C295.000000,288.052979 295.000000,286.135773 295.000000,283.999573 
	C315.077454,283.999573 334.393219,283.934845 353.708221,284.029114 
	C362.327759,284.071198 365.898346,281.392670 365.959564,272.075500 
	C366.094177,251.582657 366.256073,231.083725 365.888367,210.596573 
	C365.710907,200.708847 360.844238,197.953064 353.324982,199.000000 
z"/>
<path fill="#3D6AD6" opacity="1.000000" stroke="none" 
	d="
M353.797363,198.999969 
	C360.844238,197.953064 365.710907,200.708847 365.888367,210.596573 
	C366.256073,231.083725 366.094177,251.582657 365.959564,272.075500 
	C365.898346,281.392670 362.327759,284.071198 353.708221,284.029114 
	C334.393219,283.934845 315.077454,283.999573 295.000000,283.999573 
	C295.000000,286.135773 295.000000,288.052979 295.000000,289.970215 
	C295.000061,343.120605 294.951019,396.271118 295.045502,449.421326 
	C295.062469,458.959412 291.472809,462.259094 282.558563,462.114410 
	C260.904236,461.762878 239.240341,462.007660 217.580307,461.995453 
	C210.682938,461.991577 208.005722,459.331665 208.004669,452.463806 
	C207.996307,398.480316 208.000000,344.496857 208.000000,290.513367 
	C208.000000,288.545471 208.000000,286.577606 208.000000,283.999603 
	C205.859818,283.999603 204.089264,283.999603 202.318710,283.999603 
	C187.323303,283.999634 172.327835,284.020630 157.332489,283.991364 
	C149.093536,283.975281 146.003601,280.907043 146.001526,272.852753 
	C145.996140,251.859177 145.993973,230.865601 146.002853,209.872025 
	C146.006134,202.118378 149.193039,199.005814 157.109375,199.002228 
	C172.271408,198.995361 187.433426,199.000137 202.595459,199.000076 
	C204.220047,199.000061 205.844635,199.000076 207.999985,199.000076 
	C207.999985,196.771591 207.999985,194.990494 208.000000,193.209396 
	C208.000076,177.047684 207.641144,160.876022 208.088104,144.726669 
	C208.691696,122.918381 215.203812,103.011696 228.819168,85.653404 
	C242.718536,67.933075 261.220428,58.026287 283.023956,54.106533 
	C290.755035,52.716663 298.718964,52.223988 306.589661,52.090157 
	C323.746124,51.798431 340.910950,51.993793 358.072357,52.003021 
	C365.416351,52.006969 367.994965,54.517876 367.997467,61.658470 
	C368.004425,81.485733 367.792786,101.316429 368.121063,121.138260 
	C368.224548,127.386993 364.353516,132.436920 356.893341,132.124039 
	C345.583344,131.649673 334.237244,131.891525 322.909698,132.054031 
	C318.478302,132.117615 313.965515,132.362228 309.647675,133.272995 
	C300.588562,135.183853 295.840088,140.328278 295.237335,151.670959 
	C294.409882,167.241501 295.030304,182.888992 295.030304,199.000000 
	C314.766876,199.000000 334.045929,199.000000 353.797363,198.999969 
z"/>
</svg>