<svg version="1.1" id="Layer_1" xmlns="http://www.w3.org/2000/svg" xmlns:xlink="http://www.w3.org/1999/xlink" x="0px" y="0px"
	 width="100%" viewBox="0 0 512 512" enable-background="new 0 0 512 512" xml:space="preserve">
<path fill="#000000" opacity="1.000000" stroke="none" 
	d="
M289.000000,1.000002 
	C363.594666,1.000000 438.189331,1.000000 513.000000,1.000000 
	C513.000000,77.354095 513.000000,153.708389 512.631470,230.762680 
	C511.841949,230.458282 511.198822,229.488876 511.034332,228.444092 
	C509.304565,217.456757 503.036743,212.000229 492.018738,212.000076 
	C423.199585,211.999191 354.380402,211.998962 285.561249,212.000626 
	C274.606903,212.000900 268.000275,218.489700 268.000092,229.236267 
	C267.999725,251.565002 267.999390,273.893738 268.000275,296.222473 
	C268.000671,306.262817 274.812683,312.995148 285.014465,312.997223 
	C321.840210,313.004761 358.665985,313.000214 395.491730,313.000244 
	C397.253052,313.000244 399.014374,313.000244 400.987274,313.000244 
	C400.878723,314.232452 401.023529,314.988251 400.735779,315.501648 
	C394.624023,326.407288 388.986450,337.629272 382.135132,348.052521 
	C377.299500,355.409271 371.476929,362.437714 364.889984,368.246277 
	C355.492828,376.532928 344.992706,383.568756 334.628235,391.203186 
	C310.378693,405.111237 284.671509,412.313599 256.510803,412.088318 
	C248.172470,411.374786 240.242767,411.097778 232.430847,409.990021 
	C198.821167,405.224030 170.412033,389.742432 146.807068,365.907410 
	C137.653397,356.664551 130.762543,345.180725 122.669868,334.430420 
	C121.006546,331.479279 119.328537,328.901306 118.052460,326.137695 
	C110.502281,309.786224 104.713226,292.961273 102.908104,274.842346 
	C101.137238,257.067139 101.758522,239.592651 105.846382,222.131027 
	C109.406158,206.925171 115.312279,192.776382 122.947830,178.856766 
	C124.412483,176.472351 125.741333,174.420792 127.107719,172.394547 
	C136.524887,158.429596 147.449799,145.925797 160.843765,135.511063 
	C173.569931,125.615593 187.183777,117.565559 202.280746,111.875534 
	C219.934753,105.221786 238.084961,101.612236 257.436615,101.929337 
	C268.824585,103.122726 279.945679,103.305969 290.632111,105.554794 
	C315.162079,110.716827 336.974854,121.924431 356.364014,137.852554 
	C362.378540,142.793442 372.393402,142.134964 377.955353,136.586105 
	C394.220764,120.358856 410.473511,104.118782 426.687592,87.840302 
	C432.705902,81.798119 433.068085,70.789001 426.631805,65.289757 
	C417.063538,57.114502 407.486816,48.638435 396.768921,42.194462 
	C381.848206,33.223625 366.197784,25.267670 350.258148,18.242153 
	C331.573120,10.006569 311.694305,5.391147 291.374329,2.904464 
	C290.518036,2.799675 289.788544,1.658411 289.000000,1.000002 
z"/>
<path fill="#167EE6" opacity="1.000000" stroke="none" 
	d="
M334.963654,391.138824 
	C344.992706,383.568756 355.492828,376.532928 364.889984,368.246277 
	C371.476929,362.437714 377.299500,355.409271 382.135132,348.052521 
	C388.986450,337.629272 394.624023,326.407288 400.735779,315.501648 
	C401.023529,314.988251 400.878723,314.232452 400.987274,313.000244 
	C399.014374,313.000244 397.253052,313.000244 395.491730,313.000244 
	C358.665985,313.000214 321.840210,313.004761 285.014465,312.997223 
	C274.812683,312.995148 268.000671,306.262817 268.000275,296.222473 
	C267.999390,273.893738 267.999725,251.565002 268.000092,229.236267 
	C268.000275,218.489700 274.606903,212.000900 285.561249,212.000626 
	C354.380402,211.998962 423.199585,211.999191 492.018738,212.000076 
	C503.036743,212.000229 509.304565,217.456757 511.034332,228.444092 
	C511.198822,229.488876 511.841949,230.458282 512.631470,231.231339 
	C513.000000,250.687561 513.000000,270.375122 512.611694,290.310242 
	C511.838562,291.068542 511.208130,291.534698 511.106232,292.096741 
	C509.710327,299.794983 508.498535,307.527740 507.026978,315.210938 
	C501.048065,346.428864 487.890503,374.740479 470.340942,400.864807 
	C458.896698,417.900696 445.434753,433.467560 429.691162,446.989624 
	C415.739594,458.972534 401.270721,470.086975 385.062317,478.664154 
	C379.600677,468.972443 374.247253,459.621094 368.886505,450.273895 
	C357.580933,430.561066 346.271515,410.850372 334.963654,391.138824 
z"/>
<path fill="#FF4B26" opacity="1.000000" stroke="none" 
	d="
M256.972351,101.857285 
	C238.084961,101.612236 219.934753,105.221786 202.280746,111.875534 
	C187.183777,117.565559 173.569931,125.615593 160.843765,135.511063 
	C147.449799,145.925797 136.524887,158.429596 127.107719,172.394547 
	C125.741333,174.420792 124.412483,176.472351 122.603241,178.770905 
	C93.093292,162.296234 64.046364,145.562851 35.141270,128.517960 
	C39.861084,121.109627 44.217068,113.857246 49.060173,106.946220 
	C61.727032,88.870872 76.834129,72.911812 93.813782,58.947380 
	C111.473328,44.423790 130.734558,32.248863 151.788971,22.964148 
	C174.562027,12.921537 198.104233,5.912758 222.833038,2.919723 
	C223.621246,2.824321 224.280579,1.663927 225.000000,1.000004 
	C235.354233,1.000000 245.708450,1.000000 256.531342,1.468657 
	C256.990784,35.243973 256.981567,68.550629 256.972351,101.857285 
z"/>
<path fill="#12B347" opacity="1.000000" stroke="none" 
	d="
M122.840866,334.717773 
	C130.762543,345.180725 137.653397,356.664551 146.807068,365.907410 
	C170.412033,389.742432 198.821167,405.224030 232.430847,409.990021 
	C240.242767,411.097778 248.172470,411.374786 256.518921,412.547272 
	C256.993256,446.373657 256.996643,479.686829 257.000000,513.000000 
	C246.645767,513.000000 236.291550,513.000000 225.566528,512.587524 
	C219.150558,511.089325 213.065231,510.188202 207.067413,508.884430 
	C186.003876,504.305756 165.566895,497.802765 146.084824,488.481689 
	C124.155548,477.989777 104.055489,464.606750 86.051857,448.380432 
	C65.727325,430.062347 48.420006,409.101898 35.261703,385.019348 
	C52.576191,374.973724 69.521576,364.996155 86.558876,355.178131 
	C98.588326,348.246002 110.742424,341.530151 122.840866,334.717773 
z"/>
<path fill="#FFD500" opacity="1.000000" stroke="none" 
	d="
M122.669861,334.430420 
	C110.742424,341.530151 98.588326,348.246002 86.558876,355.178131 
	C69.521576,364.996155 52.576191,374.973724 34.937248,384.852875 
	C31.200220,378.634674 28.037025,372.485291 25.048948,366.251923 
	C13.582177,342.331299 5.913923,317.291992 2.918642,290.872498 
	C2.840659,290.184662 1.664188,289.621368 1.000001,289.000000 
	C1.000000,267.979095 1.000000,246.958206 1.331657,225.808441 
	C2.084602,225.180099 2.785993,224.730453 2.885035,224.173660 
	C4.302423,216.205154 5.436755,208.181625 7.031415,200.250198 
	C12.146323,174.809952 22.022438,151.205688 34.999432,128.829468 
	C64.046364,145.562851 93.093292,162.296234 122.484810,179.115479 
	C115.312279,192.776382 109.406158,206.925171 105.846382,222.131027 
	C101.758522,239.592651 101.137238,257.067139 102.908104,274.842346 
	C104.713226,292.961273 110.502281,309.786224 118.052460,326.137695 
	C119.328537,328.901306 121.006546,331.479279 122.669861,334.430420 
z"/>
<path fill="#D93F21" opacity="1.000000" stroke="none" 
	d="
M257.436615,101.929337 
	C256.981567,68.550629 256.990784,35.243973 257.000000,1.468657 
	C267.354218,1.000000 277.708466,1.000000 288.531342,1.000002 
	C289.788544,1.658411 290.518036,2.799675 291.374329,2.904464 
	C311.694305,5.391147 331.573120,10.006569 350.258148,18.242153 
	C366.197784,25.267670 381.848206,33.223625 396.768921,42.194462 
	C407.486816,48.638435 417.063538,57.114502 426.631805,65.289757 
	C433.068085,70.789001 432.705902,81.798119 426.687592,87.840302 
	C410.473511,104.118782 394.220764,120.358856 377.955353,136.586105 
	C372.393402,142.134964 362.378540,142.793442 356.364014,137.852554 
	C336.974854,121.924431 315.162079,110.716827 290.632111,105.554794 
	C279.945679,103.305969 268.824585,103.122726 257.436615,101.929337 
z"/>
<path fill="#000000" opacity="1.000000" stroke="none" 
	d="
M1.000001,289.468658 
	C1.664188,289.621368 2.840659,290.184662 2.918642,290.872498 
	C5.913923,317.291992 13.582177,342.331299 25.048948,366.251923 
	C28.037025,372.485291 31.200220,378.634674 34.607433,384.989105 
	C48.420006,409.101898 65.727325,430.062347 86.051857,448.380432 
	C104.055489,464.606750 124.155548,477.989777 146.084824,488.481689 
	C165.566895,497.802765 186.003876,504.305756 207.067413,508.884430 
	C213.065231,510.188202 219.150558,511.089325 225.097870,512.587524 
	C150.406296,513.000000 75.812599,513.000000 1.000000,513.000000 
	C1.000000,438.645905 1.000000,364.291626 1.000001,289.468658 
z"/>
<path fill="#000000" opacity="1.000000" stroke="none" 
	d="
M35.141270,128.517960 
	C22.022438,151.205688 12.146323,174.809952 7.031415,200.250198 
	C5.436755,208.181625 4.302423,216.205154 2.885035,224.173660 
	C2.785993,224.730453 2.084602,225.180099 1.331657,225.339783 
	C1.000000,150.406296 1.000000,75.812576 1.000000,1.000000 
	C75.354088,1.000000 149.708389,1.000000 224.531342,1.000004 
	C224.280579,1.663927 223.621246,2.824321 222.833038,2.919723 
	C198.104233,5.912758 174.562027,12.921537 151.788971,22.964148 
	C130.734558,32.248863 111.473328,44.423790 93.813782,58.947380 
	C76.834129,72.911812 61.727032,88.870872 49.060173,106.946220 
	C44.217068,113.857246 39.861084,121.109627 35.141270,128.517960 
z"/>
<path fill="#000000" opacity="1.000000" stroke="none" 
	d="
M385.167206,479.006378 
	C401.270721,470.086975 415.739594,458.972534 429.691162,446.989624 
	C445.434753,433.467560 458.896698,417.900696 470.340942,400.864807 
	C487.890503,374.740479 501.048065,346.428864 507.026978,315.210938 
	C508.498535,307.527740 509.710327,299.794983 511.106232,292.096741 
	C511.208130,291.534698 511.838562,291.068542 512.611694,290.778931 
	C513.000000,364.927368 513.000000,438.854736 513.000000,513.000000 
	C438.645905,513.000000 364.291626,513.000000 289.428284,512.587891 
	C297.320038,510.460480 305.746735,508.862244 314.116699,507.007874 
	C339.274139,501.434265 363.105286,492.454468 385.167206,479.006378 
z"/>
<path fill="#0F993E" opacity="1.000000" stroke="none" 
	d="
M385.062317,478.664154 
	C363.105286,492.454468 339.274139,501.434265 314.116699,507.007874 
	C305.746735,508.862244 297.320038,510.460480 288.959656,512.587891 
	C278.645782,513.000000 268.291534,513.000000 257.468658,513.000000 
	C256.996643,479.686829 256.993256,446.373657 256.981750,412.601562 
	C284.671509,412.313599 310.378693,405.111237 334.628235,391.203186 
	C346.271515,410.850372 357.580933,430.561066 368.886505,450.273895 
	C374.247253,459.621094 379.600677,468.972443 385.062317,478.664154 
z"/>
</svg>