<svg version="1.1" id="Layer_1" xmlns="http://www.w3.org/2000/svg" xmlns:xlink="http://www.w3.org/1999/xlink" x="0px" y="0px"
	 width="100%" viewBox="0 0 512 512" enable-background="new 0 0 512 512" xml:space="preserve">
<path fill="#FFFFFF" opacity="1.000000" stroke="none" 
	d="
M512.589355,377.985779 
	C513.000000,421.762207 512.958313,465.524536 513.086121,509.286377 
	C513.095459,512.482056 512.270386,513.082153 509.225372,513.074463 
	C465.796234,512.965332 422.366730,513.000000 378.468658,513.000000 
	C378.595032,509.969391 381.294250,510.637451 383.149231,510.375122 
	C395.248779,508.664062 406.852173,505.240936 418.158752,500.703369 
	C420.477661,499.772736 422.755981,498.763519 425.078186,497.028320 
	C433.020752,494.759003 439.252472,490.067596 446.075684,485.741180 
	C450.043365,483.219116 453.405090,480.468933 457.105896,477.609985 
	C460.924561,473.596497 465.453003,470.875549 469.125275,466.703400 
	C471.246887,464.808380 472.470703,462.605499 474.340698,460.493286 
	C481.023346,453.511261 486.301453,445.925262 491.128540,437.568420 
	C496.088989,429.306671 499.892365,420.897217 503.131744,411.808655 
	C506.199554,402.743011 508.991058,394.000427 509.991394,384.394073 
	C510.808929,382.003693 510.284882,379.561829 512.589355,377.985779 
z"/>
<path fill="#FFFFFF" opacity="1.000000" stroke="none" 
	d="
M1.414645,136.008270 
	C1.000000,92.237778 1.041681,48.475430 0.913871,4.713579 
	C0.904537,1.517754 1.729805,0.917885 4.774693,0.925538 
	C48.203812,1.034692 91.633293,1.000000 135.531342,1.000000 
	C134.541504,4.585635 131.031769,3.616986 128.439743,4.031415 
	C115.609413,6.082820 103.363640,9.913639 91.208618,15.401989 
	C82.726532,18.703928 75.375526,23.273912 67.866394,28.281540 
	C63.926422,30.810286 60.572250,33.542347 56.885483,36.391029 
	C53.410061,40.115776 49.264801,42.584206 45.825745,46.349373 
	C42.655506,49.147453 40.783070,52.638840 37.697926,55.518784 
	C31.522430,62.945328 25.843225,70.295914 21.644451,79.086441 
	C16.680771,87.064140 13.134472,95.298126 10.142962,104.196243 
	C8.490022,108.903709 7.086240,113.291801 6.129949,118.223480 
	C4.781171,122.689766 4.478924,126.947678 3.669479,131.109116 
	C3.334304,132.832291 3.415544,134.748123 1.414645,136.008270 
z"/>
<path fill="#FFFFFF" opacity="1.000000" stroke="none" 
	d="
M377.975830,1.398523 
	C421.762207,1.000000 465.524567,1.041680 509.286407,0.913876 
	C512.482117,0.904543 513.082092,1.729707 513.074402,4.774660 
	C512.965271,48.203789 513.000000,91.633278 513.000000,135.531342 
	C508.837891,133.575180 510.655670,129.134277 509.499451,125.286545 
	C507.882812,116.995155 505.691162,109.272179 502.883728,101.330803 
	C499.711029,92.784203 496.105743,84.853668 491.483826,77.009399 
	C487.780792,70.108276 483.197662,64.236870 478.534363,58.005657 
	C475.021423,54.321281 472.115234,50.558910 468.655884,46.833336 
	C465.308502,42.967064 461.077118,40.584053 457.617004,36.842537 
	C454.026764,33.878475 450.585236,31.280666 446.716064,28.669582 
	C439.233276,23.668839 431.959259,19.014902 423.485352,15.735996 
	C411.236481,10.041678 398.834290,6.167964 385.846405,4.124923 
	C383.156219,3.701743 380.162842,3.975130 377.975830,1.398523 
z"/>
<path fill="#FFFFFF" opacity="1.000000" stroke="none" 
	d="
M136.025696,512.602905 
	C92.237785,513.000000 48.475456,512.958374 4.713618,513.086121 
	C1.517878,513.095459 0.917878,512.270264 0.925532,509.225342 
	C1.034696,465.796204 1.000000,422.366730 1.000000,378.468658 
	C3.764248,378.434967 3.096726,380.875946 3.591695,382.571625 
	C4.279721,384.928711 4.316080,387.415131 4.839558,390.218750 
	C6.294612,397.757721 8.337263,404.717407 10.881875,411.928040 
	C13.997554,420.773468 17.804962,428.884735 22.502657,436.972107 
	C26.444147,444.253906 31.283617,450.485870 36.318764,456.996277 
	C39.281044,459.970520 41.637077,463.017761 44.372734,466.183228 
	C47.973503,470.444275 52.551239,473.132019 56.375664,477.148163 
	C59.963154,480.110199 63.398415,482.710754 67.263992,485.319611 
	C73.978767,489.651733 80.216240,494.113220 87.792191,496.986481 
	C101.147141,503.521698 114.787102,507.857483 129.131332,510.029022 
	C131.494278,510.386749 134.169983,510.152832 136.025696,512.602905 
z"/>
<path fill="#DF963E" opacity="1.000000" stroke="none" 
	d="
M136.468658,513.000000 
	C128.678635,510.523254 120.855820,510.477966 113.462914,508.116241 
	C104.656052,505.302765 95.782753,502.780487 87.367340,498.008728 
	C87.513779,495.649933 89.387398,495.740692 90.960556,495.527527 
	C93.105232,495.236908 95.281334,495.370178 97.444420,495.370117 
	C203.632141,495.367310 309.819855,495.361481 416.007568,495.393890 
	C419.621887,495.395020 423.367584,494.764679 427.025421,497.186615 
	C414.405548,504.628265 400.654541,509.007324 386.127167,511.016937 
	C383.538879,511.375000 380.967590,511.856140 378.194214,512.640198 
	C297.645782,513.000000 217.291550,513.000000 136.468658,513.000000 
z"/>
<path fill="#7224C2" opacity="1.000000" stroke="none" 
	d="
M377.531342,1.000000 
	C385.121735,3.519839 392.755463,3.534693 400.005341,5.772565 
	C408.050720,8.255986 416.000549,10.861063 423.869324,14.571888 
	C425.080353,17.712271 422.831299,17.902433 421.141266,18.309475 
	C419.027649,18.818537 416.831146,18.623404 414.667847,18.623531 
	C309.556702,18.629683 204.445541,18.644423 99.334465,18.558159 
	C95.971275,18.555399 91.878036,20.058249 89.768631,15.349548 
	C101.552170,8.609578 114.060593,5.171833 126.972885,3.007827 
	C129.852020,2.525308 132.750931,2.160892 135.820374,1.371049 
	C216.354233,1.000000 296.708466,1.000000 377.531342,1.000000 
z"/>
<path fill="#C3256B" opacity="1.000000" stroke="none" 
	d="
M1.397949,259.303070 
	C1.000000,248.979111 1.000000,238.958206 1.000000,228.468658 
	C2.309435,226.801987 3.933555,226.475922 5.614516,226.464951 
	C20.204325,226.369736 34.794384,226.285294 49.383801,226.510025 
	C50.380352,226.525345 51.355713,226.761749 52.711994,227.414322 
	C53.673801,228.322296 54.153732,229.043640 54.193134,229.869446 
	C54.646378,239.368729 55.311531,248.873337 53.545357,258.773071 
	C51.747208,260.441681 49.899029,260.548950 48.068611,260.560577 
	C34.090027,260.649170 20.111210,260.650391 6.132574,260.562378 
	C4.629603,260.552917 3.135723,260.403107 1.397949,259.303070 
z"/>
<path fill="#C11B75" opacity="1.000000" stroke="none" 
	d="
M53.200119,227.651733 
	C35.868214,227.997375 18.902765,227.998489 1.468657,227.999817 
	C1.000000,218.312439 1.000000,208.624878 1.000000,198.468658 
	C2.309672,196.801743 3.934139,196.475739 5.615376,196.464798 
	C20.207794,196.369888 34.800472,196.283844 49.392483,196.510696 
	C50.389217,196.526199 51.364578,196.763748 52.720093,197.418793 
	C53.817101,198.453369 54.293629,199.375336 54.303940,200.357224 
	C54.398350,209.348862 55.635910,218.375107 53.200119,227.651733 
z"/>
<path fill="#C11B75" opacity="1.000000" stroke="none" 
	d="
M512.602051,193.696960 
	C513.000000,203.354233 513.000000,212.708450 513.000000,222.531342 
	C511.690765,224.197861 510.066895,224.523880 508.386169,224.534897 
	C493.798431,224.630554 479.210419,224.713898 464.623047,224.490463 
	C463.626587,224.475204 462.651276,224.239639 461.294250,223.588806 
	C459.952759,222.282623 459.553131,221.001556 459.560425,219.683609 
	C459.606873,211.334534 458.603882,202.956818 460.458496,194.221344 
	C462.259125,192.556839 464.106995,192.450592 465.937225,192.439117 
	C479.914062,192.351471 493.891144,192.349472 507.868011,192.437805 
	C509.370819,192.447296 510.864502,192.597000 512.602051,193.696960 
z"/>
<path fill="#A41D92" opacity="1.000000" stroke="none" 
	d="
M1.000000,136.454102 
	C3.228163,131.041702 2.567343,125.522102 4.035552,120.418327 
	C4.205774,119.826607 4.541261,119.282433 4.983862,118.360733 
	C6.288257,116.820358 7.771484,116.518303 9.279466,116.519341 
	C25.579910,116.530548 41.884190,115.963348 58.621002,116.959595 
	C60.859009,118.039543 60.422886,119.577179 59.982334,120.973404 
	C57.751301,128.044174 56.097256,135.238068 55.086361,142.584961 
	C54.881519,144.073700 54.231167,145.411499 52.658951,146.669647 
	C48.853580,147.996140 45.346893,147.559616 41.885540,147.575974 
	C30.784119,147.628418 19.682234,147.614868 8.580636,147.581146 
	C6.277433,147.574158 3.917864,147.800110 1.389862,146.295776 
	C1.000000,142.969406 1.000000,139.938812 1.000000,136.454102 
z"/>
<path fill="#C3256B" opacity="1.000000" stroke="none" 
	d="
M460.798065,223.344406 
	C478.130402,222.999680 495.096558,223.000229 512.531372,223.000397 
	C513.000000,231.354233 513.000000,239.708466 513.000000,248.531342 
	C511.690765,250.197830 510.066895,250.523895 508.386169,250.534912 
	C493.798370,250.630478 479.210327,250.713837 464.622925,250.490402 
	C463.626465,250.475143 462.651184,250.239502 461.294037,249.588501 
	C459.287567,247.369659 459.327576,245.005676 459.441284,242.736633 
	C459.759460,236.387360 458.382172,229.946060 460.798065,223.344406 
z"/>
<path fill="#C43063" opacity="1.000000" stroke="none" 
	d="
M1.000000,259.468628 
	C17.972410,258.999969 34.944820,258.999969 52.375465,258.999146 
	C53.710869,259.618652 54.216763,260.540741 54.259628,261.535706 
	C54.573933,268.831360 55.296967,276.141144 53.512070,283.819275 
	C51.694618,285.453339 49.848774,285.550659 48.020218,285.563019 
	C34.222130,285.656281 20.423782,285.628387 6.625572,285.579163 
	C4.962068,285.573242 3.291674,285.491791 1.397587,284.302734 
	C1.000000,275.979095 1.000000,267.958191 1.000000,259.468628 
z"/>
<path fill="#C5395C" opacity="1.000000" stroke="none" 
	d="
M512.602295,289.697113 
	C513.000000,297.354248 513.000000,304.708496 513.000000,312.531372 
	C511.691437,314.197052 510.068542,314.523285 508.388641,314.534424 
	C493.808411,314.631165 479.227936,314.710785 464.648102,314.492096 
	C463.652191,314.477173 462.676971,314.244141 461.317322,313.599487 
	C458.227966,305.840637 459.262939,298.231689 460.472717,290.201599 
	C462.282349,288.551697 464.129150,288.450745 465.958557,288.437988 
	C479.762848,288.341919 493.567413,288.371918 507.371826,288.420685 
	C509.036041,288.426544 510.707245,288.507690 512.602295,289.697113 
z"/>
<path fill="#C64156" opacity="1.000000" stroke="none" 
	d="
M460.799408,313.344116 
	C478.131775,312.999084 495.097229,312.999542 512.531372,313.000000 
	C513.000000,319.687653 513.000000,326.375275 513.000000,333.531464 
	C511.691498,335.197083 510.068665,335.523254 508.388824,335.534393 
	C493.809143,335.631256 479.229187,335.710480 464.649872,335.492279 
	C463.653992,335.477386 462.678772,335.244751 461.318909,334.600525 
	C458.383301,327.507812 458.962555,320.608551 460.799408,313.344116 
z"/>
<path fill="#C42B67" opacity="1.000000" stroke="none" 
	d="
M460.798431,249.345108 
	C478.130951,248.999756 495.096832,249.000107 512.531372,249.000229 
	C513.000000,255.687637 513.000000,262.375275 513.000000,269.531464 
	C511.691498,271.197021 510.068665,271.523224 508.388855,271.534393 
	C493.809326,271.631226 479.229553,271.710449 464.650391,271.492279 
	C463.654510,271.477386 462.679291,271.244934 461.319397,270.600769 
	C458.382599,263.508575 458.963531,256.609528 460.798431,249.345108 
z"/>
<path fill="#C43063" opacity="1.000000" stroke="none" 
	d="
M460.801727,270.340240 
	C478.131989,269.999084 495.097321,269.999542 512.531372,270.000000 
	C513.000000,276.354401 513.000000,282.708801 513.000000,289.531616 
	C496.027832,289.999725 479.055634,289.999481 461.625305,289.998657 
	C458.061859,283.667511 459.177338,277.177399 460.801727,270.340240 
z"/>
<path fill="#C5375E" opacity="1.000000" stroke="none" 
	d="
M1.000000,284.468384 
	C17.972414,284.000061 34.944828,284.000122 52.375481,283.999695 
	C56.053173,290.336517 54.608486,296.898071 53.488636,303.848572 
	C51.658314,305.460571 49.814026,305.552551 47.986820,305.564331 
	C34.198494,305.652924 20.409924,305.628540 6.621487,305.578430 
	C4.959155,305.572388 3.289939,305.491028 1.397324,304.302490 
	C1.000000,297.645599 1.000000,291.291199 1.000000,284.468384 
z"/>
<path fill="#A41D92" opacity="1.000000" stroke="none" 
	d="
M510.416534,123.741928 
	C511.309082,127.882439 511.784790,131.763382 512.630249,135.822174 
	C513.000000,138.041672 513.000000,140.083328 513.000000,142.562500 
	C511.974182,143.924026 510.736359,144.438492 509.391571,144.441162 
	C493.390991,144.472916 477.384979,145.153961 460.944794,143.903641 
	C457.409576,137.520538 455.859100,131.016129 456.985199,123.725441 
	C459.171387,122.376671 461.192810,122.424355 463.186768,122.419403 
	C476.849854,122.385475 490.513062,122.389046 504.176208,122.415741 
	C506.175842,122.419647 508.191650,122.401794 510.416534,123.741928 
z"/>
<path fill="#CA554B" opacity="1.000000" stroke="none" 
	d="
M4.292706,391.318481 
	C2.479553,386.933594 2.383912,382.601990 1.366887,378.182312 
	C1.000000,376.285645 1.000000,374.571289 1.000000,372.428467 
	C2.035974,371.068024 3.286342,370.559265 4.643285,370.556061 
	C20.619692,370.518463 36.600960,369.865112 53.017693,371.069397 
	C56.839664,377.028992 58.030022,383.281799 57.207672,390.287476 
	C55.165588,392.178802 53.026031,392.493317 50.850010,392.515350 
	C36.907612,392.656647 22.964710,392.609070 9.022020,392.542450 
	C7.523680,392.535278 6.031353,392.399292 4.292706,391.318481 
z"/>
<path fill="#BA1A7D" opacity="1.000000" stroke="none" 
	d="
M53.201797,197.654297 
	C35.869072,198.000137 18.903193,197.999847 1.468657,197.999786 
	C1.000000,191.978851 1.000000,185.957703 1.000000,179.468277 
	C2.308136,177.803391 3.930424,177.477264 5.609797,177.466019 
	C20.185064,177.368332 34.760574,177.291534 49.335495,177.506851 
	C50.331085,177.521530 51.306217,177.752579 52.667484,178.393280 
	C55.578129,184.813248 55.017860,191.049515 53.201797,197.654297 
z"/>
<path fill="#BA1A7D" opacity="1.000000" stroke="none" 
	d="
M513.000000,193.531723 
	C496.027710,194.000397 479.055420,194.000793 461.624939,194.001740 
	C458.071198,187.996155 459.315308,181.771072 460.516846,175.144974 
	C462.350067,173.537842 464.193970,173.446991 466.020874,173.435349 
	C479.806976,173.347565 493.593292,173.371140 507.379486,173.421707 
	C509.041534,173.427811 510.710480,173.509140 512.602783,174.697540 
	C513.000000,181.021149 513.000000,187.042297 513.000000,193.531723 
z"/>
<path fill="#C64751" opacity="1.000000" stroke="none" 
	d="
M1.397522,356.302673 
	C1.000000,350.311951 1.000000,344.623932 1.000000,338.467957 
	C2.307843,336.803741 3.929684,336.477631 5.608698,336.466370 
	C20.180502,336.368652 34.752548,336.292877 49.324017,336.506592 
	C50.319393,336.521149 51.294376,336.751404 52.656948,337.389954 
	C55.703209,343.471313 54.753887,349.433258 53.511238,355.818695 
	C51.692036,357.453369 49.846451,357.550568 48.017933,357.562836 
	C34.220501,357.655457 20.422810,357.628052 6.625256,357.578705 
	C4.961860,357.572754 3.291484,357.491699 1.397522,356.302673 
z"/>
<path fill="#B21B84" opacity="1.000000" stroke="none" 
	d="
M53.200668,178.654419 
	C35.867905,179.000412 18.902611,179.000076 1.468657,178.999878 
	C1.000000,173.645065 1.000000,168.290146 1.000000,162.467606 
	C2.307704,160.803864 3.929367,160.477676 5.608223,160.466354 
	C20.178650,160.368179 34.749317,160.293716 49.319412,160.505890 
	C50.314682,160.520386 51.289722,160.749710 52.652504,161.386810 
	C55.519558,167.133911 54.991776,172.708038 53.200668,178.654419 
z"/>
<path fill="#C64751" opacity="1.000000" stroke="none" 
	d="
M460.799011,334.345703 
	C478.131836,333.999542 495.097260,333.999786 512.531372,334.000000 
	C513.000000,339.354919 513.000000,344.709869 513.000000,350.532410 
	C511.692291,352.196136 510.070618,352.522278 508.391785,352.533600 
	C493.821381,352.631897 479.250763,352.706238 464.680695,352.494080 
	C463.685455,352.479614 462.710388,352.250305 461.347626,351.613220 
	C458.480194,345.866241 459.008514,340.292145 460.799011,334.345703 
z"/>
<path fill="#C64156" opacity="1.000000" stroke="none" 
	d="
M53.200611,337.651794 
	C35.867874,337.998688 18.902594,337.999329 1.468657,338.000000 
	C1.000000,332.645081 1.000000,327.290131 1.000000,321.467590 
	C2.307693,319.803925 3.929301,319.477753 5.608133,319.466431 
	C20.178261,319.368195 34.748627,319.293854 49.318424,319.505829 
	C50.313671,319.520294 51.288719,319.749481 52.651550,320.386353 
	C55.520016,326.132538 54.991264,331.706055 53.200611,337.651794 
z"/>
<path fill="#C53C59" opacity="1.000000" stroke="none" 
	d="
M53.197418,320.658081 
	C35.867558,320.999329 18.902437,320.999664 1.468657,321.000000 
	C1.000000,315.645081 1.000000,310.290131 1.000000,304.467590 
	C17.972368,303.999908 34.944736,303.999847 52.375328,303.999329 
	C55.875931,309.313293 54.791870,314.811951 53.197418,320.658081 
z"/>
<path fill="#CA554B" opacity="1.000000" stroke="none" 
	d="
M513.000000,377.541931 
	C510.976593,379.524384 512.629395,381.861084 511.430328,383.847687 
	C509.378693,384.898407 507.536133,384.622314 505.719940,384.609924 
	C492.113281,384.517151 478.506409,384.604431 464.899689,384.562225 
	C463.075684,384.556549 461.244751,384.586517 459.024109,383.891663 
	C456.496918,377.740356 458.463806,372.276093 461.070801,366.558350 
	C462.061371,365.990692 462.684937,365.700165 463.340759,365.679749 
	C478.855408,365.195984 494.371399,365.282593 509.887115,365.627167 
	C510.719299,365.645660 511.491669,365.989105 512.608093,366.702393 
	C513.000000,370.361298 513.000000,373.722565 513.000000,377.541931 
z"/>
<path fill="#C84E4D" opacity="1.000000" stroke="none" 
	d="
M1.000000,356.466858 
	C17.972532,355.999664 34.945065,355.999329 52.375854,355.998169 
	C55.797970,360.838898 54.232723,366.153748 54.131584,371.640503 
	C36.533379,371.997833 19.235346,371.998932 1.468657,372.000000 
	C1.000000,366.977905 1.000000,361.955811 1.000000,356.466858 
z"/>
<path fill="#A91C8D" opacity="1.000000" stroke="none" 
	d="
M459.930054,143.416611 
	C477.465088,142.999710 494.763885,142.999634 512.531372,142.999786 
	C513.000000,148.022095 513.000000,153.044189 513.000000,158.533142 
	C511.689209,160.196533 510.064911,160.519608 508.383789,160.529755 
	C493.794067,160.617813 479.204071,160.712540 464.614685,160.482468 
	C463.782837,160.469345 462.972595,160.269684 461.738434,159.806427 
	C458.039825,154.618332 459.817474,149.129150 459.930054,143.416611 
z"/>
<path fill="#C74B4E" opacity="1.000000" stroke="none" 
	d="
M513.000000,366.533142 
	C496.027405,366.999481 479.054779,366.998993 461.623901,366.997131 
	C458.263214,362.017120 459.129395,356.859406 460.802490,351.340027 
	C478.132202,350.999573 495.097443,350.999786 512.531372,351.000000 
	C513.000000,356.022095 513.000000,361.044189 513.000000,366.533142 
z"/>
<path fill="#B21B84" opacity="1.000000" stroke="none" 
	d="
M460.802551,159.341370 
	C478.132355,159.000229 495.097504,158.999924 512.531372,158.999817 
	C513.000000,164.022095 513.000000,169.044189 513.000000,174.533142 
	C496.028107,175.000595 479.056244,175.001175 461.626221,175.002426 
	C458.259857,170.023132 459.129150,164.863144 460.802551,159.341370 
z"/>
<path fill="#AD1C89" opacity="1.000000" stroke="none" 
	d="
M53.197796,161.660172 
	C35.867977,162.000671 18.902647,162.000336 1.468657,162.000000 
	C1.000000,156.977905 1.000000,151.955811 1.000000,146.466858 
	C17.972597,145.999969 34.945194,145.999939 52.376068,146.000122 
	C55.737511,150.980255 54.871002,156.139282 53.197796,161.660172 
z"/>
<path fill="#DD903F" opacity="1.000000" stroke="none" 
	d="
M427.597046,497.578186 
	C425.322784,497.408905 423.344696,497.026489 421.366486,497.025970 
	C311.289612,496.997101 201.212753,496.999237 91.135880,497.012848 
	C89.984283,497.013000 88.832710,497.206299 87.367470,497.571838 
	C79.685104,495.453033 73.605370,490.777924 67.049454,486.365784 
	C67.895233,483.859436 69.936363,483.671295 71.938530,483.487457 
	C73.929207,483.304749 75.931709,483.377258 77.929413,483.377228 
	C197.308929,483.375244 316.688446,483.367096 436.067932,483.416199 
	C439.633636,483.417664 443.458221,482.494476 446.863342,485.611877 
	C441.285004,490.858582 434.864166,494.660797 427.597046,497.578186 
z"/>
<path fill="#DA8741" opacity="1.000000" stroke="none" 
	d="
M56.378220,478.171600 
	C51.987900,474.584473 48.079666,471.117767 44.025345,467.344635 
	C46.065292,464.933960 48.851528,465.411926 51.457817,465.400940 
	C66.275719,465.338470 81.093948,465.371582 95.912071,465.371490 
	C217.120972,465.370911 338.329895,465.366821 459.538788,465.394135 
	C462.834961,465.394897 466.218445,464.861206 469.752228,466.696167 
	C467.161713,471.515503 462.069275,473.724213 458.404602,477.912598 
	C455.984802,478.592896 453.827942,478.646149 451.655945,478.645538 
	C321.882599,478.608734 192.109268,478.608246 62.335930,478.648834 
	C60.497955,478.649414 58.675415,478.567078 56.378220,478.171600 
z"/>
<path fill="#DB8B40" opacity="1.000000" stroke="none" 
	d="
M56.046085,478.362061 
	C57.849854,476.824799 60.031891,476.995758 62.195812,476.995850 
	C192.114014,477.000488 322.032196,476.999115 451.950409,477.009399 
	C453.762115,477.009552 455.633179,476.702637 457.711731,477.882019 
	C454.669373,480.696747 451.236542,483.340851 447.454041,486.017944 
	C445.150452,484.825684 442.968658,484.995758 440.804749,484.995850 
	C318.219513,485.000549 195.634262,484.999023 73.049019,485.009338 
	C71.237312,485.009491 69.366379,484.703094 67.287735,485.881927 
	C62.735165,484.455322 59.900948,480.932800 56.046085,478.362061 
z"/>
<path fill="#D88242" opacity="1.000000" stroke="none" 
	d="
M470.420837,466.899841 
	C328.358246,467.030487 186.595856,467.022705 44.356361,467.026550 
	C41.326508,464.261017 38.773735,461.483856 36.083427,458.403564 
	C37.092857,454.590057 40.167732,455.496796 42.566792,455.475555 
	C58.179138,455.337250 73.792969,455.424774 89.406281,455.402557 
	C97.711021,455.390717 106.016174,455.487305 114.320404,455.337738 
	C115.623634,455.314270 116.998062,455.660980 118.612976,454.539520 
	C121.463654,453.842621 123.675346,454.727386 125.909149,455.324005 
	C136.412140,458.129181 147.044037,459.500671 157.962723,459.475861 
	C216.527618,459.342773 275.092957,459.422607 333.658142,459.406677 
	C349.445923,459.402374 365.256775,459.980042 381.454041,457.823120 
	C385.187286,459.013336 388.525787,458.395660 391.829956,458.396820 
	C416.917969,458.405640 442.006042,458.377197 467.093994,458.427002 
	C469.709930,458.432190 472.475159,458.089600 474.872314,460.612671 
	C473.645538,462.950714 472.183289,464.856079 470.420837,466.899841 
z"/>
<path fill="#D67A44" opacity="1.000000" stroke="none" 
	d="
M475.410950,460.905029 
	C472.992401,459.722534 470.629059,460.000519 468.311768,460.000305 
	C441.516937,459.997955 414.722137,460.007629 387.927338,459.978882 
	C386.125641,459.976959 384.262207,460.385651 382.245483,459.197510 
	C382.112488,456.828522 383.894653,456.786072 385.216187,456.449615 
	C398.730591,453.008545 410.808441,446.705475 421.854675,438.294250 
	C423.304779,437.190033 424.865936,436.243622 427.139587,435.846008 
	C446.242889,437.109772 464.939545,436.096436 483.620972,436.429962 
	C486.246948,436.476868 488.936249,436.110321 491.769531,437.705933 
	C487.624817,446.316193 482.168243,453.900452 475.410950,460.905029 
z"/>
<path fill="#D26E46" opacity="1.000000" stroke="none" 
	d="
M492.419678,437.862915 
	C475.952484,438.024811 459.785980,438.022827 443.619568,437.994324 
	C437.980011,437.984375 432.313385,438.362396 426.317322,436.975983 
	C425.489014,435.201630 426.669312,434.116730 427.728363,433.118134 
	C434.300842,426.920471 440.174988,420.153412 444.976501,412.477722 
	C445.692108,411.333740 446.696655,410.445953 448.431854,409.879456 
	C465.600342,409.056244 482.360504,409.501984 499.118317,409.537781 
	C500.785767,409.541351 502.436310,409.864319 503.888702,411.622742 
	C502.366669,419.716003 498.136047,426.329834 495.028351,433.418823 
	C494.380981,434.895538 493.495972,436.268097 492.419678,437.862915 
z"/>
<path fill="#CE6249" opacity="1.000000" stroke="none" 
	d="
M504.426575,411.848663 
	C502.162354,410.839783 499.992432,410.994781 497.836243,410.995972 
	C481.251465,411.005157 464.666656,411.000549 447.623596,410.999298 
	C446.907745,410.560211 446.685760,410.041290 446.927582,409.598755 
	C451.472809,401.281433 454.004547,392.151825 457.840302,383.208588 
	C473.599915,382.999298 489.037689,382.989441 504.475342,383.016693 
	C506.441376,383.020172 508.477753,382.638062 510.716003,383.886047 
	C510.989563,393.716095 507.294678,402.550812 504.426575,411.848663 
z"/>
<path fill="#7723BD" opacity="1.000000" stroke="none" 
	d="
M89.585892,14.941591 
	C90.136597,16.226320 90.837135,16.985367 92.254944,16.979296 
	C93.586746,16.973593 94.918663,16.998932 96.250526,16.998945 
	C203.472839,17.000008 310.695160,17.006905 417.917450,16.945786 
	C419.898224,16.944656 422.302795,18.064087 423.950500,15.289822 
	C432.422394,17.586681 439.572357,22.539152 446.963684,27.639868 
	C445.912354,29.883680 443.946106,30.259396 441.927460,30.468050 
	C439.770020,30.691050 437.599945,30.621172 435.434570,30.621220 
	C316.478882,30.623863 197.523178,30.630732 78.567490,30.590282 
	C74.809959,30.589005 70.839905,31.377157 67.181183,28.363544 
	C73.606880,22.392076 81.175949,18.290352 89.585892,14.941591 
z"/>
<path fill="#7E22B6" opacity="1.000000" stroke="none" 
	d="
M457.665344,35.744041 
	C461.670380,39.066456 465.226166,42.175472 468.917419,45.591545 
	C468.863281,48.218864 466.954376,48.182697 465.394653,48.430706 
	C463.254028,48.771069 461.072510,48.624882 458.907684,48.624935 
	C324.303253,48.628197 189.698853,48.635212 55.094444,48.585567 
	C51.699505,48.584316 48.036831,49.518154 44.992588,46.396309 
	C47.587330,41.813862 52.347946,39.997772 55.580460,36.091095 
	C57.396709,35.132278 59.021912,34.873875 60.716953,35.029224 
	C68.030067,35.699467 75.360443,35.359268 82.681641,35.360764 
	C202.891129,35.385353 323.100616,35.362148 443.310059,35.439346 
	C447.940948,35.442318 452.593353,34.329834 457.665344,35.744041 
z"/>
<path fill="#8222B2" opacity="1.000000" stroke="none" 
	d="
M44.638763,46.037014 
	C46.363712,47.647102 48.340904,46.971825 50.084160,46.972202 
	C188.078476,47.002117 326.072784,47.001144 464.067108,46.980080 
	C465.538513,46.979855 467.009888,46.684254 468.767090,46.212570 
	C473.106995,48.639759 474.907440,53.491676 478.980347,56.655350 
	C476.763397,59.168007 473.799194,58.562531 471.039459,58.569977 
	C449.397736,58.628368 427.755798,58.596870 406.113922,58.605068 
	C402.787231,58.606331 399.457214,58.572887 395.663635,59.008232 
	C391.674408,59.285706 388.287170,58.764999 384.880127,57.893826 
	C375.981903,55.618584 366.952423,54.523785 357.723846,54.535667 
	C291.500031,54.620934 225.275940,54.635872 159.052185,54.523842 
	C148.830322,54.506550 138.798203,55.421093 128.890778,57.882458 
	C126.632240,58.443554 124.348282,58.937527 121.508728,58.738487 
	C118.064926,57.155533 114.857613,57.629093 111.746368,57.621487 
	C89.507423,57.567093 67.268227,57.620972 45.029297,57.561066 
	C42.280796,57.553665 39.317154,58.147633 36.978554,55.382782 
	C39.407856,51.989479 41.868042,49.083633 44.638763,46.037014 
z"/>
<path fill="#7C22B9" opacity="1.000000" stroke="none" 
	d="
M457.967896,35.642559 
	C448.053040,37.780727 437.892731,36.959694 427.777740,36.964447 
	C309.721252,37.019955 191.664703,37.001842 73.608170,36.994308 
	C67.973892,36.993950 62.312302,37.364124 56.321838,35.971329 
	C59.318539,33.308231 62.751785,30.658928 66.536255,27.983646 
	C69.605331,28.813145 72.376938,29.030422 75.231415,29.029606 
	C196.458878,28.994890 317.686340,28.999079 438.913818,29.004610 
	C441.408325,29.004725 443.913879,29.165325 446.689789,28.017612 
	C451.292206,29.527712 454.092651,33.101982 457.967896,35.642559 
z"/>
<path fill="#8821AD" opacity="1.000000" stroke="none" 
	d="
M36.634750,55.038818 
	C38.529976,56.749184 40.677094,55.960602 42.570492,55.964794 
	C66.856270,56.018570 91.142281,55.975952 115.427956,56.049370 
	C117.252792,56.054886 119.492386,55.032997 120.946335,57.717445 
	C120.894020,60.569328 118.768410,60.757877 117.159966,61.354065 
	C106.402733,65.341347 97.024529,71.568893 88.333267,78.927322 
	C86.805199,80.221069 85.394775,81.683487 82.731323,81.559250 
	C64.096054,81.648148 45.890915,81.604843 27.686142,81.546761 
	C25.132889,81.538612 22.272091,82.056068 20.485308,78.867790 
	C24.744595,69.950615 30.385786,62.465904 36.634750,55.038818 
z"/>
<path fill="#9120A4" opacity="1.000000" stroke="none" 
	d="
M20.278273,78.658424 
	C22.002935,80.611450 24.327608,79.974136 26.402615,79.978394 
	C43.635036,80.013756 60.867584,79.985031 78.100014,80.018509 
	C79.894020,80.021988 81.749313,79.614685 83.759399,80.799164 
	C84.430519,83.074974 83.044220,84.195976 81.884315,85.283470 
	C76.660538,90.181084 72.639091,95.994751 68.890961,102.025528 
	C67.738091,103.880493 66.578033,105.684891 63.643696,105.791595 
	C48.030117,105.269066 32.837914,105.712814 17.649137,105.547813 
	C15.027598,105.519341 12.345360,105.870689 9.510545,104.324226 
	C11.449160,95.056831 15.701620,86.971184 20.278273,78.658424 
z"/>
<path fill="#9C1E9A" opacity="1.000000" stroke="none" 
	d="
M8.995304,104.341003 
	C25.604906,103.998665 42.042957,103.988136 58.480961,104.012177 
	C60.448490,104.015060 62.484112,103.642227 64.728104,104.872208 
	C65.825394,110.055397 62.336246,113.544296 60.175758,117.824051 
	C41.915695,118.004005 23.999149,118.003510 5.625099,118.004135 
	C5.350271,113.280251 7.124328,108.991989 8.995304,104.341003 
z"/>
<path fill="#9120A4" opacity="1.000000" stroke="none" 
	d="
M491.684509,75.742813 
	C497.198578,83.131081 499.838959,91.522903 503.787720,99.642563 
	C501.949799,101.808174 499.544769,101.552284 497.261658,101.553543 
	C481.375061,101.562294 465.488251,101.672462 449.159607,101.484238 
	C446.068115,101.326714 443.948822,100.217468 442.509460,97.965439 
	C438.658356,91.940117 433.669830,86.913017 428.688080,81.850273 
	C427.290466,80.429977 424.521637,79.083801 426.946472,75.951469 
	C429.792633,74.511894 432.458649,74.446655 435.118988,74.440186 
	C451.729431,74.399765 468.339966,74.418144 484.950470,74.427940 
	C487.114105,74.429214 489.282898,74.418449 491.684509,75.742813 
z"/>
<path fill="#8821AD" opacity="1.000000" stroke="none" 
	d="
M491.965576,75.635727 
	C473.420837,75.971619 454.726990,76.011307 436.033356,75.975609 
	C432.880402,75.969589 429.778625,76.109009 426.310425,77.018005 
	C424.205597,77.482903 422.991302,76.470421 421.815735,75.613365 
	C413.748688,69.731964 405.419312,64.329880 395.932190,60.958569 
	C395.141785,60.677692 394.505219,60.126270 393.820374,59.125931 
	C396.720703,57.343746 399.935364,56.948807 403.331024,56.958614 
	C428.276459,57.030689 453.222168,56.990387 478.644623,56.974415 
	C483.717377,62.828304 488.303864,68.699829 491.965576,75.635727 
z"/>
<path fill="#9C1E9A" opacity="1.000000" stroke="none" 
	d="
M446.063538,100.837097 
	C457.423645,99.427628 468.717285,100.208839 479.998108,100.023903 
	C487.636139,99.898682 495.277832,99.999992 503.375427,99.999992 
	C506.123993,107.747032 508.415009,115.494072 510.769653,123.621307 
	C493.165649,124.005493 475.497955,124.009491 457.354065,124.024307 
	C456.147644,124.090683 455.485199,123.821396 455.237152,123.168861 
	C452.412262,115.737404 448.372437,108.819000 446.063538,100.837097 
z"/>
<path fill="#D67A44" opacity="1.000000" stroke="none" 
	d="
M119.025833,454.497986 
	C118.335785,458.219543 115.635323,456.939117 113.759476,456.945587 
	C89.813416,457.028137 65.866959,456.990326 41.920647,457.019440 
	C40.119083,457.021637 38.258545,456.622314 36.232140,457.786438 
	C30.681051,452.111084 26.074343,445.655396 22.041645,438.367859 
	C23.765415,434.751404 27.039129,435.496979 29.887571,435.478882 
	C48.103668,435.362946 66.320610,435.477234 84.963951,435.420532 
	C87.356949,435.129272 88.966728,435.941498 90.461403,437.075226 
	C98.972870,443.531067 107.894623,449.279541 117.944611,453.098755 
	C118.407845,453.274780 118.723175,453.707153 119.025833,454.497986 
z"/>
<path fill="#D26E46" opacity="1.000000" stroke="none" 
	d="
M87.106544,435.508484 
	C85.640694,437.654236 83.663773,436.966125 81.926033,436.970795 
	C64.130211,437.018524 46.334183,436.989929 28.538261,437.014252 
	C26.568390,437.016937 24.528364,436.635162 22.284428,437.879272 
	C16.762308,430.520508 13.637558,422.015228 10.105289,413.366028 
	C11.725955,411.367981 13.795978,411.461945 15.766156,411.464020 
	C32.234486,411.481415 48.703701,411.223694 65.599152,411.641693 
	C67.922523,412.026825 69.413185,413.066315 70.420143,414.626892 
	C74.727325,421.302277 80.058151,427.090820 85.727745,432.600220 
	C86.437126,433.289581 86.978020,434.125458 87.106544,435.508484 
z"/>
<path fill="#CE6249" opacity="1.000000" stroke="none" 
	d="
M68.023438,412.669556 
	C48.915943,412.997314 29.998537,412.997559 10.623677,412.995789 
	C7.139948,406.232697 5.241450,399.141266 3.932689,391.453064 
	C19.084696,391.027618 34.280975,391.001587 49.477230,391.011139 
	C51.797070,391.012604 54.099228,391.048676 56.698929,390.023438 
	C57.843079,389.903351 58.479271,390.169342 58.740700,390.812164 
	C61.695786,398.078369 65.220055,405.093536 68.023438,412.669556 
z"/>
<path fill="#FFFFFF" opacity="1.000000" stroke="none" 
	d="
M67.991760,413.309631 
	C63.636536,405.818085 60.147091,398.324371 57.437248,390.155396 
	C56.626217,384.157440 54.063946,378.727539 53.902267,372.419983 
	C52.442764,367.033081 53.193977,361.947876 52.904549,356.457581 
	C52.880714,350.306610 52.927315,344.615845 52.903534,338.461548 
	C52.879974,332.640411 52.926796,327.282776 52.903149,321.462097 
	C52.880047,315.640991 52.927418,310.282990 52.904167,304.461914 
	C52.880863,297.641479 52.928177,291.284058 52.904602,284.462952 
	C52.881538,275.974854 52.929363,267.950500 52.905441,259.462219 
	C52.881657,248.973724 52.929623,238.949127 52.905624,228.460388 
	C52.880913,218.307022 52.928162,208.617767 52.905178,198.464478 
	C52.881081,191.976303 52.927212,185.952194 52.903275,179.464417 
	C52.880024,173.642807 52.926842,168.284866 52.903484,162.463989 
	C52.880123,156.975693 52.926937,151.950378 52.904045,146.462708 
	C54.222385,139.322754 55.610367,132.645142 56.998512,125.967560 
	C57.529831,123.411690 58.298836,120.945465 59.781208,118.366867 
	C60.867462,113.635284 63.252983,109.836731 65.062210,105.402740 
	C67.398262,101.775162 69.811333,98.599815 71.920166,95.233864 
	C75.152641,90.074471 79.522812,85.961082 83.907738,81.420120 
	C94.686386,71.097923 106.730659,63.368652 120.856094,58.438663 
	C138.951492,52.476322 157.410538,52.913475 175.886581,52.952633 
	C236.038498,53.080132 296.191101,53.092136 356.342834,52.925827 
	C368.936127,52.891010 381.101379,54.736046 393.348145,58.655258 
	C405.400269,62.654289 415.655121,69.138184 425.571045,76.900009 
	C432.825714,84.410133 440.227173,91.391243 445.898804,100.270020 
	C449.869202,108.043922 454.011475,115.437614 456.559937,123.848846 
	C457.407104,130.160126 460.198669,135.891739 460.096069,142.569305 
	C461.888123,147.944427 460.573639,153.061981 461.096069,158.539749 
	C461.119873,164.026443 461.072571,169.052368 461.096680,174.540695 
	C461.120117,181.026993 461.072144,187.050903 461.095459,193.538544 
	C461.119843,203.358398 461.072998,212.714539 461.095215,222.534897 
	C461.118103,231.356461 461.071960,239.713791 461.095459,248.535248 
	C461.119110,255.689880 461.073120,262.380371 461.096863,269.534760 
	C461.120575,276.355957 461.074554,282.713226 461.097778,289.534302 
	C461.120636,297.355560 461.074158,304.713013 461.097015,312.534546 
	C461.119995,319.689514 461.073669,326.380432 461.096863,333.535309 
	C461.120148,339.357269 461.073914,344.715271 461.097290,350.536316 
	C461.121429,356.023285 461.075928,361.047180 461.098022,366.533447 
	C460.217102,372.071136 459.268616,377.146515 458.241150,382.609802 
	C455.861359,392.635101 452.928253,402.020081 447.211914,410.655518 
	C441.835022,420.830994 434.148163,428.712555 426.026855,436.659607 
	C412.816284,446.980560 398.874207,455.203979 382.180389,458.559906 
	C326.846588,463.609650 271.619324,459.878540 216.451233,460.932190 
	C194.968918,461.342499 173.472122,461.032013 151.982071,460.985718 
	C140.902924,460.961853 130.245743,458.534607 119.421463,454.941833 
	C107.481873,450.483734 97.018875,444.255524 87.350090,436.029419 
	C80.283836,428.853271 73.398132,421.932617 67.991760,413.309631 
z"/>
<path fill="#B21B84" opacity="1.000000" stroke="none" 
	d="
M345.664001,158.738693 
	C353.966034,164.885742 359.645935,172.813568 365.806030,180.663208 
	C363.627930,183.075104 360.843872,182.543640 358.247894,182.551193 
	C338.631714,182.608200 319.015289,182.576721 299.398956,182.584396 
	C296.409637,182.585571 293.416199,182.525681 290.042999,183.177826 
	C287.245636,184.293472 285.040894,183.359207 282.855072,182.606903 
	C267.107422,177.186874 251.225250,176.904709 235.211197,181.281296 
	C233.599670,181.721741 231.990875,182.130356 229.841599,181.940552 
	C227.763367,181.333710 226.100021,181.555984 224.440567,181.559235 
	C202.499359,181.602325 180.558090,181.609299 158.616913,181.555801 
	C155.792191,181.548920 152.934952,181.512421 150.189758,179.336853 
	C154.463593,171.315475 160.810898,165.224136 167.578735,159.095062 
	C170.277267,157.543457 172.905960,157.367767 175.603455,157.368088 
	C229.867584,157.374786 284.131714,157.371490 338.395844,157.377686 
	C340.734253,157.377960 343.068268,157.384674 345.664001,158.738693 
z"/>
<path fill="#C64751" opacity="1.000000" stroke="none" 
	d="
M365.763947,331.703949 
	C361.710480,340.112762 355.416412,346.605499 348.417908,352.910919 
	C346.325775,353.560059 344.512512,353.656738 342.667694,353.654480 
	C285.551056,353.584991 228.434387,353.585602 171.317734,353.651215 
	C169.813538,353.652924 168.322388,353.626526 166.372162,353.172363 
	C159.977142,348.620087 155.493439,342.855591 151.013245,337.085602 
	C150.112732,335.925903 149.158005,334.808258 148.197205,333.334473 
	C150.376694,329.893982 153.742279,330.471283 156.804138,330.459015 
	C179.014511,330.370270 201.225266,330.451904 223.881104,330.291046 
	C227.093781,329.774292 229.570099,330.883636 232.091354,331.705536 
	C248.788406,337.148682 265.471252,337.174347 282.150482,331.632172 
	C284.360352,330.897858 286.540314,330.028229 289.381500,330.011536 
	C292.794769,330.768738 295.798767,330.371399 298.772980,330.379242 
	C318.374329,330.430969 337.975891,330.391083 357.577301,330.421326 
	C360.213470,330.425385 362.914764,330.097717 365.763947,331.703949 
z"/>
<path fill="#A91C8D" opacity="1.000000" stroke="none" 
	d="
M177.071701,151.664246 
	C183.501175,145.859467 190.583878,141.531693 198.532883,137.980743 
	C202.527954,137.431580 206.178833,137.386215 209.841614,137.388748 
	C242.120224,137.411072 274.398865,137.415146 306.677460,137.380844 
	C309.180695,137.378189 311.656006,137.581497 314.620972,137.889191 
	C323.382660,140.872894 330.200012,146.264206 337.609924,151.356140 
	C336.890350,153.714615 334.953613,154.171005 332.932526,154.440018 
	C331.446777,154.637772 329.945801,154.614975 328.449280,154.615234 
	C280.892639,154.623428 233.335983,154.639816 185.779449,154.575989 
	C182.749146,154.571930 179.321823,155.387680 177.071701,151.664246 
z"/>
<path fill="#CA554B" opacity="1.000000" stroke="none" 
	d="
M324.008423,370.606567 
	C319.116669,375.225189 313.216370,377.591461 307.383362,379.959229 
	C294.325104,385.259949 280.806549,388.096588 266.636383,389.215881 
	C239.176315,391.384888 213.909637,385.417328 190.094910,371.420959 
	C190.130966,368.780762 192.042786,368.848022 193.597733,368.569031 
	C195.235382,368.275269 196.916870,368.381256 198.580902,368.381073 
	C237.526535,368.376373 276.472198,368.361206 315.417786,368.411224 
	C318.334961,368.414978 321.477631,367.749298 324.008423,370.606567 
z"/>
<path fill="#9C1E9A" opacity="1.000000" stroke="none" 
	d="
M358.294189,126.322418 
	C357.398041,108.556450 368.498810,98.071541 380.952087,94.602890 
	C398.336548,89.760750 418.441925,100.585358 421.065857,119.378563 
	C421.334045,121.299438 422.283783,123.126633 421.904297,125.576614 
	C420.273804,127.582687 418.229431,127.563660 416.252686,127.571510 
	C398.675842,127.641220 381.098846,127.634895 363.521973,127.578972 
	C361.862946,127.573692 360.196259,127.494003 358.294189,126.322418 
z"/>
<path fill="#C84E4D" opacity="1.000000" stroke="none" 
	d="
M324.408691,371.052063 
	C322.971222,369.618652 321.366364,370.013184 319.916748,370.012665 
	C277.755219,369.997406 235.593704,369.997467 193.432205,370.020691 
	C192.460938,370.021210 191.489838,370.316528 190.233521,370.788971 
	C184.204895,369.249054 180.066528,364.880432 175.037155,361.362488 
	C176.457336,358.101990 179.336624,358.467072 181.922180,358.434174 
	C191.565674,358.311401 201.210876,358.385559 210.855423,358.384888 
	C250.431442,358.382141 290.007477,358.366089 329.583435,358.414459 
	C332.671722,358.418243 335.971130,357.770264 338.870941,360.608826 
	C334.790497,365.026398 330.066620,368.426575 324.408691,371.052063 
z"/>
<path fill="#C21C73" opacity="1.000000" stroke="none" 
	d="
M127.520096,231.329071 
	C127.548668,222.905807 130.744659,215.579208 133.391525,208.102036 
	C133.714203,207.190567 133.961426,206.252396 134.566742,205.137863 
	C135.500565,204.676910 136.135330,204.398682 136.797897,204.406647 
	C155.422134,204.629944 174.050613,204.075668 193.103790,204.810349 
	C195.116852,205.426971 195.774841,206.552521 194.796371,207.908234 
	C189.572159,215.146652 186.075378,223.355270 181.629990,231.027771 
	C181.387329,231.446625 180.854218,231.622299 179.998306,232.009888 
	C163.300613,233.026093 147.016922,232.497055 130.736267,232.439926 
	C129.737183,232.436417 128.766403,232.144943 127.520096,231.329071 
z"/>
<path fill="#C74B4E" opacity="1.000000" stroke="none" 
	d="
M339.421387,360.909302 
	C337.156006,359.835754 334.978149,359.994904 332.814911,359.995148 
	C282.223328,360.001404 231.631744,359.997742 181.040161,360.009247 
	C179.229492,360.009674 177.360611,359.706940 175.281769,360.879639 
	C171.202332,359.509674 168.979309,356.242218 166.033585,353.356689 
	C167.847717,351.828186 170.027374,351.995361 172.190063,351.995575 
	C228.778641,352.001160 285.367218,351.997925 341.955780,352.009369 
	C343.766296,352.009735 345.635773,351.703979 347.713257,352.881226 
	C345.659332,356.000519 343.159973,358.890564 339.421387,360.909302 
z"/>
<path fill="#C3256B" opacity="1.000000" stroke="none" 
	d="
M126.976051,231.363358 
	C144.750214,230.998596 162.333542,230.998611 180.375061,230.997314 
	C181.843613,231.916458 181.767456,233.108627 181.458710,234.227402 
	C179.598755,240.967224 178.517303,247.823639 178.175171,254.804352 
	C178.134399,255.636200 177.754120,256.400238 176.917694,257.395508 
	C174.854736,258.555145 173.012192,258.569641 171.184006,258.575195 
	C157.541550,258.616669 143.899033,258.616058 130.256577,258.575378 
	C128.429260,258.569916 126.583046,258.572723 124.538200,257.320618 
	C124.313774,248.498474 124.806168,240.036331 126.976051,231.363358 
z"/>
<path fill="#C11B75" opacity="1.000000" stroke="none" 
	d="
M374.422119,195.763031 
	C378.811401,202.314224 380.879364,209.464691 383.783508,216.634262 
	C382.042053,219.084152 379.576263,219.466354 377.071014,219.476593 
	C361.207367,219.541428 345.342804,219.777252 329.044556,219.285919 
	C327.262695,218.917587 326.152802,218.208649 325.375549,217.099686 
	C321.222534,211.174332 317.158813,205.190674 312.016571,200.027161 
	C311.076996,199.083694 309.861298,197.698669 312.080933,196.106964 
	C317.581390,194.967850 322.730194,195.462448 327.851196,195.462128 
	C343.237427,195.461182 358.624329,195.274902 374.422119,195.763031 
z"/>
<path fill="#A41D92" opacity="1.000000" stroke="none" 
	d="
M314.932678,137.633545 
	C313.310852,139.050659 311.322540,139.011292 309.313812,139.010452 
	C274.389587,138.995956 239.465347,139.001556 204.541122,138.995132 
	C202.890823,138.994827 201.198166,139.213287 199.286865,138.118958 
	C209.951263,131.433365 222.117538,128.137466 234.617218,126.081032 
	C241.389908,124.966797 248.296326,124.109512 255.143051,124.104988 
	C275.945221,124.091240 295.981567,127.979507 314.932678,137.633545 
z"/>
<path fill="#C5395C" opacity="1.000000" stroke="none" 
	d="
M139.413727,317.212463 
	C134.554489,310.944336 132.848068,303.608459 130.106110,296.373779 
	C132.382019,293.927673 135.165405,294.484467 137.760971,294.465179 
	C153.054871,294.351440 168.349792,294.545990 184.083191,294.349670 
	C186.148102,294.272583 187.451065,294.866760 188.347321,296.243317 
	C192.072845,301.965179 195.976517,307.550171 200.560486,312.636353 
	C201.359558,313.522919 201.707504,314.664124 200.837173,316.200867 
	C199.356750,317.241364 198.039459,317.477875 196.705948,317.480438 
	C177.763153,317.516815 158.819321,317.850281 139.413727,317.212463 
z"/>
<path fill="#BA1A7D" opacity="1.000000" stroke="none" 
	d="
M374.798553,195.652634 
	C365.325256,197.970139 355.703461,196.776764 346.136169,196.951797 
	C334.704681,197.160919 323.266602,197.009521 311.355286,197.025909 
	C310.401031,197.189148 309.838593,197.307281 309.452179,197.035843 
	C302.790527,192.356445 295.549805,188.579315 288.942078,183.482758 
	C289.657837,179.790115 292.350250,181.059082 294.224670,181.052582 
	C317.789307,180.970932 341.354340,180.999298 365.377014,181.000031 
	C369.267761,185.482834 371.988678,190.409653 374.798553,195.652634 
z"/>
<path fill="#C64156" opacity="1.000000" stroke="none" 
	d="
M138.979736,317.465118 
	C140.362701,315.351715 142.339081,316.033875 144.082367,316.028961 
	C161.077377,315.980865 178.072601,316.013794 195.067673,315.979767 
	C196.871780,315.976135 198.737076,316.384918 200.757904,315.200043 
	C202.135178,314.541534 202.991409,315.091644 203.761475,315.717804 
	C209.832062,320.653992 216.262558,325.029907 223.320251,328.449768 
	C224.072586,328.814331 224.684464,329.385773 225.056061,330.517273 
	C223.476974,332.759521 221.331604,331.958801 219.448471,331.963806 
	C198.065399,332.020844 176.682114,332.004242 155.298889,331.993500 
	C153.143021,331.992432 150.984543,331.881653 148.569550,332.936340 
	C144.698273,328.191650 141.482712,323.233276 138.979736,317.465118 
z"/>
<path fill="#C42B67" opacity="1.000000" stroke="none" 
	d="
M124.097092,257.442505 
	C141.417328,256.997223 158.666443,256.997894 176.373688,256.997925 
	C179.240036,263.749969 179.972549,270.712585 179.110321,278.184692 
	C177.299927,279.442749 175.638046,279.553070 173.979614,279.561676 
	C159.899719,279.634674 145.819687,279.620422 131.739746,279.569611 
	C130.082855,279.563629 128.418121,279.492188 126.540436,278.321442 
	C124.652336,271.378754 124.269875,264.640961 124.097092,257.442505 
z"/>
<path fill="#AD1C89" opacity="1.000000" stroke="none" 
	d="
M176.689270,151.187866 
	C178.088516,153.180405 179.976944,153.004166 181.820923,153.003967 
	C231.934891,152.998444 282.048859,152.996841 332.162811,153.007980 
	C333.853821,153.008362 335.488617,152.884552 337.420624,151.791489 
	C340.579773,153.792435 343.594879,155.606003 345.972961,158.648499 
	C287.021606,158.966644 227.930405,158.975281 168.363068,158.971115 
	C169.936020,155.531830 173.719101,153.999466 176.689270,151.187866 
z"/>
<path fill="#C11B75" opacity="1.000000" stroke="none" 
	d="
M195.225250,205.949097 
	C177.065887,205.999405 159.295670,206.010025 141.525513,205.986496 
	C139.558426,205.983887 137.521240,206.363693 135.281158,205.118225 
	C136.860413,199.807938 139.311722,194.907486 142.567413,190.105377 
	C144.536377,188.610596 146.514160,188.453110 148.520294,188.449387 
	C166.401169,188.416153 184.282059,188.382019 202.162857,188.468964 
	C203.988541,188.477844 205.799866,188.670547 207.960876,189.390106 
	C211.120178,190.838516 210.516556,192.754501 208.768921,194.116837 
	C204.107529,197.750534 200.502243,202.540054 195.225250,205.949097 
z"/>
<path fill="#C64156" opacity="1.000000" stroke="none" 
	d="
M366.431946,331.895630 
	C342.583710,332.026062 319.047852,332.020416 295.511993,331.986572 
	C293.548340,331.983734 291.515778,332.359070 289.277740,331.122620 
	C288.848877,330.456757 288.827454,329.825623 289.251617,329.599426 
	C296.632202,325.664246 303.067444,320.139832 311.225342,316.725494 
	C330.429901,316.154572 349.204437,316.470703 367.977875,316.505737 
	C369.983765,316.509491 371.968323,316.814087 373.841705,318.643005 
	C372.489502,323.754791 369.396820,327.625793 366.431946,331.895630 
z"/>
<path fill="#C43063" opacity="1.000000" stroke="none" 
	d="
M126.098167,278.411285 
	C143.501190,277.992157 160.833435,277.988678 178.641602,277.974670 
	C179.829651,277.910187 180.495209,278.163422 180.720413,278.806305 
	C182.537170,283.992462 185.556213,288.730774 186.261627,294.568146 
	C184.639160,296.647278 182.666168,295.964691 180.928833,295.969727 
	C164.313858,296.017883 147.698669,295.997772 130.626068,295.995880 
	C127.802750,290.509674 127.039322,284.638336 126.098167,278.411285 
z"/>
<path fill="#C5375E" opacity="1.000000" stroke="none" 
	d="
M386.467651,285.680328 
	C385.226593,291.584930 384.184601,297.342926 381.432892,302.859589 
	C379.608673,304.281250 377.807465,304.540771 375.950531,304.549286 
	C360.305878,304.621185 344.661102,304.629852 329.016449,304.542725 
	C327.681915,304.535309 326.357635,304.380096 324.695496,303.649475 
	C323.335846,302.556000 322.935699,301.341492 323.485138,300.303925 
	C326.210846,295.156982 327.713470,289.280212 332.747131,285.063782 
	C346.885742,283.825439 360.615082,284.621887 374.333313,284.462433 
	C378.256744,284.416840 382.284668,283.732117 386.467651,285.680328 
z"/>
<path fill="#C21C73" opacity="1.000000" stroke="none" 
	d="
M326.975647,218.364166 
	C342.994995,217.997772 358.823395,217.964981 374.651337,218.030350 
	C377.502838,218.042114 380.279205,217.828201 383.421204,217.011078 
	C385.211639,222.725662 386.589935,228.452682 387.900085,234.587296 
	C385.601959,237.023804 382.825043,236.492447 380.213593,236.538391 
	C365.897308,236.790298 351.572632,236.123734 336.815918,236.940536 
	C334.753296,236.889877 333.399841,236.189514 332.917816,234.661957 
	C331.201019,229.221298 328.008484,224.354721 326.975647,218.364166 
z"/>
<path fill="#C53C59" opacity="1.000000" stroke="none" 
	d="
M323.600555,301.829102 
	C325.348419,303.643799 327.313477,302.966125 329.043518,302.971497 
	C346.083099,303.024323 363.122894,303.011230 380.638855,303.029663 
	C380.492004,308.872803 376.836578,313.467621 374.429077,318.866272 
	C371.401123,318.197937 368.632202,317.958160 365.777069,317.967346 
	C347.462555,318.026428 329.147766,317.990326 310.357117,317.973755 
	C309.740234,317.480652 309.644287,316.897156 309.954071,316.552643 
	C314.384369,311.625305 318.295349,306.229767 323.600555,301.829102 
z"/>
<path fill="#C43063" opacity="1.000000" stroke="none" 
	d="
M386.902771,285.578827 
	C368.916595,285.999298 350.999969,285.999634 332.625122,286.000092 
	C330.994873,284.899933 331.244568,283.520691 331.708466,282.310852 
	C333.420624,277.845642 333.614014,272.914764 336.336761,268.400269 
	C338.620819,267.386200 340.616669,267.421967 342.598480,267.418610 
	C355.827362,267.396210 369.056244,267.390320 382.285065,267.423248 
	C384.262451,267.428192 386.270660,267.355804 388.465118,268.677612 
	C389.629578,274.548798 387.465393,279.757477 386.902771,285.578827 
z"/>
<path fill="#C42B67" opacity="1.000000" stroke="none" 
	d="
M388.903503,268.571106 
	C371.583344,268.999359 354.333130,268.999573 336.624664,268.999359 
	C334.983154,263.374969 334.979950,257.773621 336.820618,251.844650 
	C338.784973,250.471802 340.625275,250.435028 342.448639,250.428207 
	C356.383240,250.376083 370.317932,250.373764 384.252533,250.429291 
	C385.911743,250.435898 387.579071,250.504562 389.461243,251.673584 
	C390.216125,257.416046 390.219208,262.812836 388.903503,268.571106 
z"/>
<path fill="#C3256B" opacity="1.000000" stroke="none" 
	d="
M389.902161,251.576202 
	C372.583435,251.999207 355.333038,251.999390 337.624451,251.999084 
	C334.424164,247.243896 334.093658,242.041809 334.606812,236.384094 
	C337.586487,235.206436 340.339233,234.951370 343.181427,234.965363 
	C357.759644,235.037170 372.338379,234.997955 387.374451,234.996216 
	C389.931732,240.197495 388.096924,245.920837 389.902161,251.576202 
z"/>
<path fill="#A41D92" opacity="1.000000" stroke="none" 
	d="
M357.932129,126.477974 
	C378.894775,126.027138 399.906860,126.013130 421.376587,125.998962 
	C421.824524,130.788651 420.603516,135.305511 418.428040,139.864746 
	C417.338898,140.382874 416.549805,140.655899 415.706543,140.649643 
	C399.268921,140.527817 382.830719,140.702820 366.393250,140.548264 
	C364.888245,140.534119 363.404999,140.345459 361.633270,139.400620 
	C357.875427,135.782257 357.912415,131.352615 357.932129,126.477974 
z"/>
<path fill="#A91C8D" opacity="1.000000" stroke="none" 
	d="
M361.125031,139.758163 
	C379.240143,138.560043 397.348053,139.145142 415.452240,139.092773 
	C416.075348,139.090973 416.699646,139.495941 417.714294,139.880402 
	C414.425446,148.972107 407.335846,154.339188 398.460114,156.623795 
	C386.131470,159.797165 374.997284,156.810715 365.933167,147.432999 
	C363.867920,145.296295 362.395599,142.784836 361.125031,139.758163 
z"/>
<path fill="#BA1A7D" opacity="1.000000" stroke="none" 
	d="
M211.216431,191.479065 
	C206.532425,190.064148 202.092560,189.954803 197.597488,189.971725 
	C179.677673,190.039200 161.757431,189.990677 143.361038,189.972443 
	C143.969971,185.770615 147.123428,182.811157 149.567963,179.103073 
	C156.419510,180.582642 163.082001,179.955399 169.698502,179.978027 
	C187.825500,180.040024 205.952881,179.986435 224.080032,180.019531 
	C225.880432,180.022812 227.742584,179.612885 229.757797,180.802536 
	C230.162384,182.111816 229.543259,182.664032 228.777725,183.000046 
	C222.911118,185.574936 217.500824,189.068420 211.216431,191.479065 
z"/>
<path fill="#FFFFFF" opacity="1.000000" stroke="none" 
	d="
M210.574783,191.669464 
	C216.737762,187.445724 222.889984,183.984039 229.855988,181.436615 
	C238.826828,178.706985 247.621216,176.876419 256.884827,176.855103 
	C267.830170,176.829910 278.121826,179.107956 288.577820,183.060272 
	C296.337646,187.233994 303.835907,191.160400 310.569427,196.900909 
	C316.973358,203.206787 322.427399,209.879364 327.012054,217.677094 
	C329.767242,223.784866 332.950256,229.339523 334.558411,235.843903 
	C335.595398,241.067490 336.311371,246.100571 337.096771,251.566116 
	C336.425995,257.369019 337.880310,262.850433 336.257080,268.589844 
	C335.970306,274.708374 333.833160,279.925262 332.106995,285.615753 
	C329.448822,291.057343 326.730743,296.114410 323.984131,301.529327 
	C319.543793,307.206421 315.375580,312.742981 310.022125,317.654968 
	C303.181641,322.390625 296.781921,327.319916 289.058807,330.642517 
	C278.649780,334.420319 268.392822,337.202789 257.344177,337.156830 
	C246.324448,337.111023 235.948746,334.929504 225.419617,330.940430 
	C216.840988,326.243439 208.366837,322.018951 201.348694,315.024597 
	C195.475922,308.894012 190.289856,302.630219 186.354736,295.056152 
	C184.019897,289.346802 180.871246,284.232422 179.438965,278.154205 
	C178.260925,271.294159 176.390442,264.732605 176.902985,257.453003 
	C176.816956,248.362030 177.849899,239.898148 180.895599,231.384842 
	C184.701080,222.441956 188.329651,213.750763 194.806915,206.337524 
	C199.475281,200.738220 204.302017,195.683319 210.574783,191.669464 
z"/>
</svg>